<?xml version="1.0" encoding="iso-8859-1"?>
<!-- Generator: Adobe Illustrator 20.0.0, SVG Export Plug-In . SVG Version: 6.00 Build 0)  -->
<svg version="1.1" id="Layer_1" xmlns="http://www.w3.org/2000/svg" xmlns:xlink="http://www.w3.org/1999/xlink" x="0px" y="0px"
	 viewBox="0 0 526.255 245.326" style="enable-background:new 0 0 526.255 245.326;" xml:space="preserve">
<path style="fill:#808285;" d="M51.615,132.369c0-44.027,35.405-79.918,79.236-80.754v-5.922
	c-47.098,0.837-85.159,39.383-85.159,86.677c0,13.919,3.315,27.071,9.169,38.74h6.67C55.214,159.6,51.615,146.398,51.615,132.369z"
	/>
<path style="fill:#808285;" d="M32.12,132.369c0-54.777,44.15-99.411,98.731-100.25v-8.131
	C71.786,24.828,23.988,73.108,23.988,132.369c0,13.646,2.559,26.7,7.183,38.74h8.741C34.898,159.184,32.12,146.095,32.12,132.369z"
	/>
<path style="fill:#808285;" d="M10.571,132.369c0-66.659,53.816-120.957,120.28-121.798V0C58.559,0.842,0,59.881,0,132.369
	c0,13.475,2.036,26.48,5.795,38.74h11.128C12.826,158.93,10.571,145.912,10.571,132.369z"/>
<path style="fill:#8DC640;" d="M87.922,132.911c0-23.769,19.217-43.124,42.929-43.365v-1.938V65.047
	c-36.046,1.467-64.819,31.141-64.819,67.542c0,15.209,5.016,29.231,13.492,40.532l51.328,68.433V177.57v-1.293
	C107.139,176.036,87.922,156.681,87.922,132.911z"/>
<path style="fill:#808285;" d="M130.75,112.331c-11.126,0.293-20.06,9.384-20.06,20.581c0,11.197,8.934,20.288,20.06,20.581V112.331
	z"/>
<g>
	<path d="M172.78,138.551l-15.048-52.995h-0.453c0.705,9.026,1.057,16.038,1.057,21.037v31.958h-17.615v-73.58h26.473l15.35,52.241
		h0.402l15.048-52.241h26.522v73.58h-18.268v-32.26c0-1.677,0.025-3.539,0.075-5.586c0.051-2.046,0.277-7.063,0.68-15.048h-0.453
		l-14.847,52.894H172.78z"/>
	<path d="M309.219,101.661c0,12.38-3.037,21.792-9.109,28.234c-6.073,6.441-14.965,9.663-26.674,9.663
		c-11.543,0-20.392-3.237-26.548-9.714c-6.158-6.475-9.235-15.903-9.235-28.284c0-12.246,3.062-21.598,9.184-28.058
		c6.123-6.458,15.023-9.688,26.699-9.688c11.709,0,20.584,3.204,26.623,9.612C306.199,79.836,309.219,89.247,309.219,101.661z
		 M258.589,101.661c0,14.226,4.948,21.338,14.847,21.338c5.032,0,8.765-1.728,11.197-5.184c2.433-3.455,3.649-8.84,3.649-16.155
		c0-7.348-1.233-12.775-3.699-16.281c-2.466-3.506-6.148-5.259-11.047-5.259C263.572,80.12,258.589,87.3,258.589,101.661z"/>
	<path d="M392.562,138.551h-26.069l-26.875-51.838h-0.453c0.637,8.153,0.956,14.377,0.956,18.672v33.166h-17.614v-73.58h25.969
		l26.774,51.133h0.302c-0.47-7.414-0.704-13.37-0.704-17.866V64.971h17.715V138.551z"/>
	<path d="M452.151,138.551h-43.685v-73.58h43.685v15.954h-23.806v11.575h22.044v15.954h-22.044v13.89h23.806V138.551z"/>
	<path d="M491.305,92.249l12.683-27.278h21.541l-24.208,44.842v28.737h-20.03v-28.133l-24.208-45.446h21.641L491.305,92.249z"/>
</g>
<g>
	<path style="fill:#808285;" d="M209.514,223.877h-10.677v18.381h-18.32v-18.381h-37.853v-13.042l38.884-57.265h17.289v55.748
		h10.677V223.877z M180.517,209.318v-15.044c0-2.508,0.101-6.147,0.304-10.92c0.202-4.772,0.364-7.542,0.485-8.311h-0.485
		c-1.497,3.316-3.297,6.552-5.399,9.706l-16.258,24.568H180.517z"/>
</g>
<g>
	<path d="M272.808,243.087h-6.248l-52.533-78.739h-0.485c0.485,9.383,0.728,16.46,0.728,21.231v57.508h-5.944v-88.688h6.188
		l52.473,78.617h0.364c-0.364-7.279-0.546-14.194-0.546-20.746v-57.871h6.005V243.087z"/>
	<path d="M346.392,243.087h-48.47v-88.688h48.47v5.702H304.11v33.546h39.916v5.702H304.11v38.035h42.282V243.087z"/>
	<path d="M437.142,243.087h-5.096l-19.473-68.427c-1.618-5.621-2.831-10.232-3.64-13.831c-0.647,3.519-1.567,7.563-2.76,12.133
		c-1.193,4.57-7.715,27.945-19.563,70.125h-5.218l-24.386-88.688h6.491l15.529,57.144c0.606,2.305,1.172,4.439,1.698,6.399
		c0.525,1.962,1.001,3.802,1.426,5.521c0.425,1.719,0.809,3.377,1.152,4.975c0.344,1.598,0.657,3.205,0.94,4.822
		c0.971-5.499,3.033-13.851,6.188-25.054l15.166-53.807h6.855l17.773,61.754c2.063,7.118,3.539,12.86,4.429,17.228
		c0.525-2.912,1.203-6.006,2.032-9.281c0.828-3.275,7.067-26.509,18.714-69.7h6.249L437.142,243.087z"/>
	<path d="M526.255,220.218c0,7.4-2.721,13.265-8.159,17.592c-5.439,4.327-12.669,6.49-21.686,6.49
		c-10.839,0-19.149-1.193-24.933-3.579v-6.188c6.39,2.71,14.538,4.064,24.447,4.064c7.279,0,13.052-1.668,17.318-5.004
		c4.267-3.337,6.4-7.714,6.4-13.134c0-3.357-0.708-6.137-2.123-8.341c-1.416-2.204-3.722-4.216-6.916-6.036
		c-3.195-1.82-7.886-3.781-14.073-5.884c-9.06-3.114-15.317-6.48-18.775-10.101c-3.457-3.619-5.187-8.441-5.187-14.468
		c0-6.632,2.599-12.042,7.795-16.228c5.196-4.186,11.88-6.278,20.049-6.278c8.331,0,16.156,1.577,23.477,4.732l-2.244,5.339
		c-7.361-3.073-14.398-4.61-21.11-4.61c-6.552,0-11.769,1.517-15.651,4.55c-3.882,3.032-5.823,7.157-5.823,12.375
		c0,3.275,0.596,5.966,1.789,8.067c1.192,2.104,3.145,3.994,5.854,5.672c2.709,1.679,7.359,3.691,13.952,6.036
		c6.915,2.387,12.111,4.701,15.59,6.946c3.478,2.244,6.016,4.792,7.613,7.642C525.456,212.726,526.255,216.174,526.255,220.218z"/>
</g>
</svg>
