<?xml version="1.0" encoding="iso-8859-1"?>
<!-- Generator: Adobe Illustrator 20.0.0, SVG Export Plug-In . SVG Version: 6.00 Build 0)  -->
<svg version="1.1" xmlns="http://www.w3.org/2000/svg" xmlns:xlink="http://www.w3.org/1999/xlink" x="0px" y="0px"
	 viewBox="0 0 207.105 251.196" style="enable-background:new 0 0 207.105 251.196;" xml:space="preserve">
<g id="Layer_1">
	<path style="fill:#808285;" d="M53.673,137.653c0-45.785,36.819-83.108,82.399-83.978v-6.159
		c-48.977,0.871-88.557,40.956-88.557,90.137c0,14.475,3.447,28.152,9.533,40.286h6.937
		C57.417,165.97,53.673,152.242,53.673,137.653z"/>
	<path style="fill:#808285;" d="M33.402,137.653c0-56.963,45.911-103.379,102.671-104.251v-8.456
		C74.651,25.818,24.946,76.026,24.946,137.653c0,14.191,2.661,27.766,7.469,40.286h9.09
		C36.288,165.538,33.402,151.926,33.402,137.653z"/>
	<path style="fill:#808285;" d="M10.994,137.653c0-69.32,55.964-125.785,125.079-126.66V0C60.896,0.876,0,62.271,0,137.653
		c0,14.013,2.118,27.537,6.025,40.286h11.571C13.336,165.273,10.994,151.736,10.994,137.653z"/>
	<circle style="fill:#808285;" cx="138.228" cy="138.217" r="21.43"/>
	<path style="fill:#0091D0;" d="M91.43,138.217c0-24.718,19.984-44.846,44.643-45.097v-2.016v-23.46
		c-37.484,1.525-67.406,32.383-67.406,70.238c0,15.815,5.216,30.397,14.03,42.15l53.376,71.164v-66.538v-1.345
		C111.414,183.062,91.43,162.934,91.43,138.217z"/>
	<path d="M184.342,138.217c0-24.718-19.984-44.846-44.642-45.097v-2.016v-23.46c37.484,1.525,67.406,32.383,67.406,70.238
		c0,15.815-5.215,30.397-14.029,42.15L139.7,251.196v-66.538v-1.345C164.357,183.062,184.342,162.934,184.342,138.217z"/>
</g>
<g id="ai2html-settings">
	<rect x="-450" style="fill:none;" width="400" height="462"/>
	<text transform="matrix(1 0 0 1 -450 10.6499)"><tspan x="0" y="0" style="font-family:'MyriadPro-Regular'; font-size:15px;">ai2html-settings</tspan><tspan x="0" y="18" style="font-family:'MyriadPro-Regular'; font-size:15px;">settings_version: 0.61</tspan><tspan x="0" y="36" style="font-family:'MyriadPro-Regular'; font-size:15px;">image_format: png</tspan><tspan x="0" y="54" style="font-family:'MyriadPro-Regular'; font-size:15px;">responsiveness: fixed</tspan><tspan x="0" y="72" style="font-family:'MyriadPro-Regular'; font-size:15px;">output: one-file</tspan><tspan x="0" y="90" style="font-family:'MyriadPro-Regular'; font-size:15px;">html_output_path: /ai2html-output/</tspan><tspan x="0" y="108" style="font-family:'MyriadPro-Regular'; font-size:15px;">html_output_extension: .html</tspan><tspan x="0" y="126" style="font-family:'MyriadPro-Regular'; font-size:15px;">image_output_path: </tspan><tspan x="0" y="144" style="font-family:'MyriadPro-Regular'; font-size:15px;">local_preview_template: </tspan><tspan x="0" y="162" style="font-family:'MyriadPro-Regular'; font-size:15px;">png_number_of_colors: 128</tspan><tspan x="0" y="180" style="font-family:'MyriadPro-Regular'; font-size:15px;">jpg_quality: 60</tspan><tspan x="0" y="198" style="font-family:'MyriadPro-Regular'; font-size:15px;">headline: Ai Graphic Headline</tspan><tspan x="0" y="216" style="font-family:'MyriadPro-Regular'; font-size:15px;">leadin: Introductory text here.</tspan><tspan x="0" y="234" style="font-family:'MyriadPro-Regular'; font-size:15px;">notes: Notes: Text goes here.</tspan><tspan x="0" y="252" style="font-family:'MyriadPro-Regular'; font-size:15px;">sources: Source: Name goes here.</tspan><tspan x="0" y="270" style="font-family:'MyriadPro-Regular'; font-size:15px;">credit: By ai2html</tspan></text>
</g>
</svg>
