<svg xmlns="http://www.w3.org/2000/svg" viewBox="0 0 124.66 65.86">
  <defs>
    <style>
      .a {
        fill: #f9f8f3;
      }

      .b {
        fill: #d4d0c8;
      }
    </style>
  </defs>
  <title>cert-icon</title>
  <g>
    <rect class="a" width="124.66" height="65.86"/>
    <polygon class="b" points="85.29 32.93 80.15 35.75 84.17 40.02 78.41 41.12 80.9 46.42 75.09 45.68 75.83 51.5 70.52 49 69.43 54.77 65.16 50.74 62.33 55.88 59.51 50.74 55.24 54.77 54.14 49 48.84 51.5 49.58 45.68 43.76 46.42 46.26 41.12 40.49 40.02 44.52 35.75 39.38 32.93 44.52 30.1 40.49 25.83 46.26 24.74 43.76 19.43 49.58 20.17 48.84 14.36 54.14 16.85 55.24 11.09 59.51 15.11 62.33 9.97 65.16 15.11 69.43 11.09 70.52 16.85 75.83 14.36 75.09 20.18 80.9 19.43 78.41 24.74 84.17 25.83 80.15 30.1 85.29 32.93"/>
  </g>
</svg>
